<svg width="57" height="74" viewBox="0 0 57 74" fill="none" xmlns="http://www.w3.org/2000/svg">
<g id="java-4 1" clip-path="url(#clip0_46_86)">
<path id="Vector" d="M18.8454 55.7258C18.8454 55.7258 16.0667 57.3269 20.823 57.8687C26.5851 58.52 29.5301 58.4266 35.88 57.2358C35.88 57.2358 37.5495 58.273 39.881 59.1713C25.6461 65.2162 7.6647 58.8212 18.8454 55.7258ZM17.106 47.8376C17.106 47.8376 13.9893 50.1235 18.7492 50.6113C24.9045 51.2405 29.7655 51.292 38.1768 49.6871C38.1768 49.6871 39.3404 50.8558 41.1698 51.4949C23.9588 56.4814 4.78912 51.8881 17.106 47.8376Z" fill="#5382A1"/>
<path id="Vector_2" d="M31.7698 34.4568C35.2773 38.4579 30.8485 42.0586 30.8485 42.0586C30.8485 42.0586 39.7541 37.5033 35.6642 31.7988C31.8441 26.4789 28.9146 23.8359 44.7736 14.7227C44.7738 14.7225 19.8802 20.8827 31.7698 34.4568Z" fill="#E76F00"/>
<path id="Vector_3" d="M50.5966 61.5602C50.5966 61.5602 52.6529 63.2392 48.3319 64.5378C40.1154 67.0041 14.1337 67.7488 6.91617 64.6363C4.32163 63.5177 9.18712 61.9657 10.7176 61.6401C12.3138 61.2971 13.2259 61.361 13.2259 61.361C10.3405 59.347 -5.42404 65.3154 5.21829 67.0248C34.2415 71.6884 58.125 64.9248 50.5966 61.5602ZM20.1817 39.6646C20.1817 39.6646 6.96575 42.7748 15.5016 43.9042C19.1057 44.3823 26.2903 44.2741 32.9824 43.7185C38.4518 43.2614 43.9439 42.2897 43.9439 42.2897C43.9439 42.2897 42.0153 43.108 40.62 44.0518C27.1995 47.5492 1.27357 45.9221 8.73732 42.3448C15.0494 39.3216 20.1817 39.6646 20.1817 39.6646ZM43.8894 52.7947C57.5319 45.7706 51.2243 39.0202 46.8214 39.9298C45.7423 40.1524 45.2611 40.3452 45.2611 40.3452C45.2611 40.3452 45.6619 39.7234 46.4267 39.4543C55.1367 36.4202 61.8353 48.4029 43.615 53.149C43.615 53.149 43.8265 52.9621 43.8894 52.7947Z" fill="#5382A1"/>
<path id="Vector_4" d="M35.6641 0.00695801C35.6641 0.00695801 43.2196 7.49543 28.4981 19.0111C16.6929 28.2483 25.8061 33.5152 28.4932 39.533C21.6025 33.3726 16.5455 27.95 19.9382 22.9029C24.9175 15.4943 38.7126 11.9023 35.6641 0.00695801Z" fill="#E76F00"/>
<path id="Vector_5" d="M21.5222 71.8286C34.6174 72.6591 54.7265 71.3677 55.2026 65.2285C55.2026 65.2285 54.2873 67.5557 44.3801 69.4042C33.2033 71.4881 19.4179 71.245 11.2417 69.9093C11.2421 69.909 12.9157 71.2817 21.5222 71.8286Z" fill="#5382A1"/>
</g>
<defs>
<clipPath id="clip0_46_86">
<rect width="57" height="74" fill="white"/>
</clipPath>
</defs>
</svg>
